<?xml version="1.0" encoding="UTF-8"?>
<svg width="903px" height="149px" viewBox="0 0 903 149" version="1.1" xmlns="http://www.w3.org/2000/svg" xmlns:xlink="http://www.w3.org/1999/xlink">
    <title>EA-white</title>
    <defs>
        <linearGradient x1="17.067055%" y1="4.00939607%" x2="76.4427863%" y2="87.3239624%" id="linearGradient-1">
            <stop stop-color="#0BD4C3" offset="0%"></stop>
            <stop stop-color="#4DE17D" offset="100%"></stop>
            <stop stop-color="#4FE17B" offset="100%"></stop>
        </linearGradient>
    </defs>
    <g id="Page-1" stroke="none" stroke-width="1" fill="none" fill-rule="evenodd">
        <g id="Desktop-HD-Copy" transform="translate(-508.000000, -736.000000)">
            <g id="EA-white" transform="translate(508.000000, 736.000000)">
                <path d="M192.804688,109.055664 C204.967773,109.055664 213.780273,102.583984 215.249023,92.9453125 L202.948242,92.9453125 C201.708984,96.7089844 197.945312,99.1416016 193.03418,99.1416016 C186.195312,99.1416016 181.743164,94.3222656 181.743164,87.2998047 L181.743164,86.4736328 L215.662109,86.4736328 L215.662109,82.3886719 C215.662109,67.4257812 206.620117,57.7412109 192.299805,57.7412109 C177.75,57.7412109 168.570312,67.9306641 168.570312,83.6279297 C168.570312,99.3710938 177.658203,109.055664 192.804688,109.055664 Z M202.764648,78.2578125 L181.880859,78.2578125 C182.339844,72.1074219 186.5625,67.6552734 192.4375,67.6552734 C198.404297,67.6552734 202.489258,71.9697266 202.764648,78.2578125 Z M235.142578,108.780273 C241.292969,108.780273 247.397461,105.705078 250.151367,100.472656 L250.426758,100.472656 L250.426758,108 L263.370117,108 L263.370117,74.1728516 C263.370117,64.2587891 255.154297,57.7412109 242.532227,57.7412109 C229.49707,57.7412109 221.373047,64.3046875 220.868164,73.8515625 L233.123047,73.8515625 C233.765625,70.2255859 236.932617,67.7470703 241.935547,67.7470703 C246.984375,67.7470703 250.197266,70.4091797 250.197266,74.9990234 L250.197266,78.2578125 L237.804688,78.9921875 C225.549805,79.7265625 218.665039,84.9130859 218.665039,93.8632812 C218.665039,102.72168 225.779297,108.780273 235.142578,108.780273 Z M239.548828,99.0957031 C235.004883,99.0957031 231.975586,96.8007812 231.975586,93.1289062 C231.975586,89.640625 234.821289,87.3916016 239.824219,87.0244141 L250.197266,86.3818359 L250.197266,89.9619141 C250.197266,95.2861328 245.37793,99.0957031 239.548828,99.0957031 Z M290.240234,109.055664 C302.908203,109.055664 311.766602,102.675781 311.766602,92.9912109 C311.766602,85.7851562 307.543945,81.7460938 297.262695,79.5888672 L288.863281,77.7988281 C283.90625,76.7431641 282.070312,75.0449219 282.070312,72.5205078 C282.070312,69.2617188 285.145508,67.1503906 289.78125,67.1503906 C294.738281,67.1503906 297.72168,69.8583984 298.134766,73.8515625 L310.481445,73.8515625 C310.206055,64.2128906 302.40332,57.7412109 289.78125,57.7412109 C277.250977,57.7412109 269.172852,63.8916016 269.172852,73.2548828 C269.172852,80.6445312 273.992188,85.4179688 283.493164,87.4375 L291.892578,89.1816406 C296.711914,90.2832031 298.410156,91.7519531 298.410156,94.3681641 C298.410156,97.5810547 295.289062,99.6464844 290.240234,99.6464844 C284.916016,99.6464844 281.84082,97.3515625 281.014648,93.0371094 L267.933594,93.0371094 C268.805664,102.72168 276.654297,109.055664 290.240234,109.055664 Z M322.480469,126.22168 C335.010742,126.22168 341.207031,121.677734 345.383789,109.055664 L362.320312,58.796875 L348.183594,58.796875 L337.764648,97.2597656 L337.489258,97.2597656 L327.024414,58.796875 L312.336914,58.796875 L329.457031,108 C329.50293,108.229492 328.998047,110.157227 328.998047,110.386719 C328.080078,114.288086 325.647461,115.848633 320.782227,115.848633 C320.277344,115.848633 317.844727,115.802734 317.385742,115.710938 L317.385742,126.083984 C317.844727,126.175781 321.975586,126.22168 322.480469,126.22168 Z M396.416016,108.780273 C402.566406,108.780273 408.670898,105.705078 411.424805,100.472656 L411.700195,100.472656 L411.700195,108 L424.643555,108 L424.643555,74.1728516 C424.643555,64.2587891 416.427734,57.7412109 403.805664,57.7412109 C390.770508,57.7412109 382.646484,64.3046875 382.141602,73.8515625 L394.396484,73.8515625 C395.039062,70.2255859 398.206055,67.7470703 403.208984,67.7470703 C408.257812,67.7470703 411.470703,70.4091797 411.470703,74.9990234 L411.470703,78.2578125 L399.078125,78.9921875 C386.823242,79.7265625 379.938477,84.9130859 379.938477,93.8632812 C379.938477,102.72168 387.052734,108.780273 396.416016,108.780273 Z M400.822266,99.0957031 C396.27832,99.0957031 393.249023,96.8007812 393.249023,93.1289062 C393.249023,89.640625 396.094727,87.3916016 401.097656,87.0244141 L411.470703,86.3818359 L411.470703,89.9619141 C411.470703,95.2861328 406.651367,99.0957031 400.822266,99.0957031 Z M444.674805,124.064453 L444.674805,99.7382812 L444.950195,99.7382812 C447.566406,105.291992 453.074219,108.780273 460.234375,108.780273 C472.535156,108.780273 480.154297,99.2333984 480.154297,83.3984375 C480.154297,67.5175781 472.489258,58.0166016 460.004883,58.0166016 C452.890625,58.0166016 447.428711,61.5966797 444.766602,67.3798828 L444.491211,67.3798828 L444.491211,58.796875 L431.272461,58.796875 L431.272461,124.064453 L444.674805,124.064453 Z M455.506836,97.9941406 C448.943359,97.9941406 444.628906,92.3027344 444.628906,83.3984375 C444.628906,74.5859375 448.943359,68.7568359 455.506836,68.7568359 C462.208008,68.7568359 466.430664,74.4941406 466.430664,83.3984375 C466.430664,92.3486328 462.208008,97.9941406 455.506836,97.9941406 Z M498.441406,124.064453 L498.441406,99.7382812 L498.716797,99.7382812 C501.333008,105.291992 506.84082,108.780273 514.000977,108.780273 C526.301758,108.780273 533.920898,99.2333984 533.920898,83.3984375 C533.920898,67.5175781 526.255859,58.0166016 513.771484,58.0166016 C506.657227,58.0166016 501.195312,61.5966797 498.533203,67.3798828 L498.257812,67.3798828 L498.257812,58.796875 L485.039062,58.796875 L485.039062,124.064453 L498.441406,124.064453 Z M509.273438,97.9941406 C502.709961,97.9941406 498.395508,92.3027344 498.395508,83.3984375 C498.395508,74.5859375 502.709961,68.7568359 509.273438,68.7568359 C515.974609,68.7568359 520.197266,74.4941406 520.197266,83.3984375 C520.197266,92.3486328 515.974609,97.9941406 509.273438,97.9941406 Z M561.387695,109.055664 C576.258789,109.055664 585.759766,99.5546875 585.759766,83.3525391 C585.759766,67.3798828 576.121094,57.7412109 561.387695,57.7412109 C546.654297,57.7412109 537.015625,67.4257812 537.015625,83.3525391 C537.015625,99.5087891 546.516602,109.055664 561.387695,109.055664 Z M561.387695,98.8203125 C554.77832,98.8203125 550.601562,93.2666016 550.601562,83.3984375 C550.601562,73.6220703 554.870117,67.9765625 561.387695,67.9765625 C567.905273,67.9765625 572.12793,73.6220703 572.12793,83.3984375 C572.12793,93.2666016 567.951172,98.8203125 561.387695,98.8203125 Z M597.529297,52.1416016 C601.430664,52.1416016 604.505859,49.0205078 604.505859,45.2568359 C604.505859,41.4472656 601.430664,38.3720703 597.529297,38.3720703 C593.62793,38.3720703 590.552734,41.4472656 590.552734,45.2568359 C590.552734,49.0205078 593.62793,52.1416016 597.529297,52.1416016 Z M604.276367,108 L604.276367,58.796875 L590.874023,58.796875 L590.874023,108 L604.276367,108 Z M624.583008,108 L624.583008,79.7724609 C624.583008,73.3925781 628.392578,68.9863281 634.405273,68.9863281 C640.417969,68.9863281 643.447266,72.6582031 643.447266,79.0839844 L643.447266,108 L656.849609,108 L656.849609,76.2841797 C656.849609,64.7636719 650.699219,57.8789062 639.775391,57.8789062 C632.202148,57.8789062 627.015625,61.4589844 624.399414,67.5634766 L624.124023,67.5634766 L624.124023,58.796875 L611.180664,58.796875 L611.180664,108 L624.583008,108 Z M682.985352,108.183594 C685.693359,108.183594 687.988281,107.954102 689.365234,107.632812 L689.365234,97.7646484 C688.539062,97.9023438 687.299805,97.9941406 686.106445,97.9941406 C682.15918,97.9941406 680.323242,96.2041016 680.323242,92.4404297 L680.323242,68.8945312 L689.411133,68.8945312 L689.411133,58.796875 L680.323242,58.796875 L680.323242,47.4599609 L666.920898,47.4599609 L666.920898,58.796875 L659.990234,58.796875 L659.990234,68.8945312 L666.920898,68.8945312 L666.920898,94.7353516 C666.920898,104.328125 671.418945,108.183594 682.985352,108.183594 Z M708.157227,108 L708.157227,78.3037109 C708.157227,72.7958984 711.599609,68.9404297 716.694336,68.9404297 C721.651367,68.9404297 724.634766,72.0615234 724.634766,77.3398438 L724.634766,108 L737.532227,108 L737.532227,78.1201172 C737.532227,72.6582031 740.882812,68.9404297 745.977539,68.9404297 C751.164062,68.9404297 754.009766,72.0615234 754.009766,77.7529297 L754.009766,108 L767.412109,108 L767.412109,74.4023438 C767.412109,64.4882812 760.94043,57.8789062 751.301758,57.8789062 C744.095703,57.8789062 738.220703,61.7802734 736.017578,67.9765625 L735.742188,67.9765625 C734.089844,61.5507812 729.132812,57.8789062 722.018555,57.8789062 C715.317383,57.8789062 710.039062,61.7802734 707.973633,67.7011719 L707.698242,67.7011719 L707.698242,58.796875 L694.754883,58.796875 L694.754883,108 L708.157227,108 Z M796.347656,109.055664 C808.510742,109.055664 817.323242,102.583984 818.791992,92.9453125 L806.491211,92.9453125 C805.251953,96.7089844 801.488281,99.1416016 796.577148,99.1416016 C789.738281,99.1416016 785.286133,94.3222656 785.286133,87.2998047 L785.286133,86.4736328 L819.205078,86.4736328 L819.205078,82.3886719 C819.205078,67.4257812 810.163086,57.7412109 795.842773,57.7412109 C781.292969,57.7412109 772.113281,67.9306641 772.113281,83.6279297 C772.113281,99.3710938 781.201172,109.055664 796.347656,109.055664 Z M806.307617,78.2578125 L785.423828,78.2578125 C785.882812,72.1074219 790.105469,67.6552734 795.980469,67.6552734 C801.947266,67.6552734 806.032227,71.9697266 806.307617,78.2578125 Z M837.492188,108 L837.492188,79.7724609 C837.492188,73.3925781 841.301758,68.9863281 847.314453,68.9863281 C853.327148,68.9863281 856.356445,72.6582031 856.356445,79.0839844 L856.356445,108 L869.758789,108 L869.758789,76.2841797 C869.758789,64.7636719 863.608398,57.8789062 852.68457,57.8789062 C845.111328,57.8789062 839.924805,61.4589844 837.308594,67.5634766 L837.033203,67.5634766 L837.033203,58.796875 L824.089844,58.796875 L824.089844,108 L837.492188,108 Z M895.894531,108.183594 C898.602539,108.183594 900.897461,107.954102 902.274414,107.632812 L902.274414,97.7646484 C901.448242,97.9023438 900.208984,97.9941406 899.015625,97.9941406 C895.068359,97.9941406 893.232422,96.2041016 893.232422,92.4404297 L893.232422,68.8945312 L902.320312,68.8945312 L902.320312,58.796875 L893.232422,58.796875 L893.232422,47.4599609 L879.830078,47.4599609 L879.830078,58.796875 L872.899414,58.796875 L872.899414,68.8945312 L879.830078,68.8945312 L879.830078,94.7353516 C879.830078,104.328125 884.328125,108.183594 895.894531,108.183594 Z" id="easyappointment" fill="#FFFFFF" fill-rule="nonzero"></path>
                <path d="M89.5,0 C94.1944204,-8.62351033e-16 98,3.80557963 98,8.5 L98.0007305,19.8058878 C100.581962,20.3345121 103.108597,21.1219811 105.562825,22.1646908 C110.317615,24.184664 114.589592,27.0699252 118.259803,30.7401374 C121.930145,34.4104816 124.815339,38.682329 126.835311,43.4371216 C128.93529,48.380049 130,53.6164666 130,59.0008835 L130,71.2586693 C130,81.4549134 121.704779,89.7501382 111.50854,89.7501382 L51.7975671,89.7501382 C45.3185392,89.7501382 40.0474018,84.4789982 40.0474018,77.999967 C40.0474018,71.5209358 45.3185392,66.2497957 51.7975671,66.2497957 L106.499669,66.2497957 L106.499669,59.0008835 C106.499669,54.6246049 104.774706,50.4896008 101.64256,47.357454 C98.5104152,44.2252412 94.3753472,42.5003425 89.9990708,42.5003425 L40.0009292,42.5003425 C35.6246528,42.5003425 31.4895848,44.2252412 28.3575056,47.357388 C25.2252944,50.4896008 23.5003306,54.6246049 23.5003306,59.0008835 L23.5003306,108.999116 C23.5003306,113.375329 25.2252944,117.510399 28.3574396,120.642546 C31.4895848,123.774693 35.6246528,125.499657 40.0009292,125.499657 L89.9990708,125.499657 C94.3753472,125.499657 98.5104152,123.774693 101.64256,120.642546 C104.774706,117.510333 106.499669,113.375263 106.499669,108.999116 C106.499669,102.520085 111.770741,97.2489452 118.249835,97.2489452 C124.728863,97.2489452 130,102.520085 130,108.999116 C130,114.383467 128.93529,119.619819 126.835377,124.562812 C124.815273,129.317737 121.930079,133.589584 118.259803,137.259797 C114.589526,140.930075 110.317681,143.81527 105.562825,145.835441 C100.619966,147.935289 95.383485,149 89.9990708,149 L40.0009292,149 C34.616515,149 29.3801661,147.935289 24.4372412,145.835441 C19.682385,143.815336 15.4104738,140.930141 11.7401974,137.259797 C8.06985509,133.589452 5.18466141,129.317605 3.16468918,124.562878 C1.06477621,119.619951 0,114.383533 0,108.999116 L0,59.0008835 C0,53.6164666 1.06477621,48.380049 3.16468918,43.4371216 C5.18472743,38.682329 8.0699211,34.4104816 11.7401974,30.7401374 C15.4104078,27.0699252 19.682385,24.184664 24.4371752,22.1646248 C26.8917529,21.1218131 29.4187405,20.3342917 32.0003203,19.8056744 L32,8.5 C32,3.80557963 35.8055796,8.62351033e-16 40.5,0 C45.1944204,-8.62351033e-16 49,3.80557963 49,8.5 L49,19 L81,19 L81,8.5 C81,3.80557963 84.8055796,8.62351033e-16 89.5,0 Z" id="Combined-Shape" fill="url(#linearGradient-1)"></path>
            </g>
        </g>
    </g>
</svg>